<svg width="24" height="24" viewBox="0 0 24 24" fill="none" xmlns="http://www.w3.org/2000/svg">
<g clip-path="url(#clip0_882_14579)">
<path d="M5.31891 14.5035L4.4835 17.6222L1.43011 17.6868C0.517594 15.9943 0 14.0578 0 12C0 10.0101 0.483938 8.13362 1.34175 6.48132H1.34241L4.06078 6.9797L5.25159 9.68176C5.00236 10.4084 4.86652 11.1884 4.86652 12C4.86661 12.8809 5.02617 13.7249 5.31891 14.5035Z" fill="#FBBB00"/>
<path d="M23.7921 9.7583C23.93 10.4842 24.0018 11.2339 24.0018 12.0001C24.0018 12.8592 23.9115 13.6972 23.7394 14.5056C23.1553 17.2563 21.6289 19.6583 19.5144 21.3581L19.5137 21.3574L16.0898 21.1827L15.6052 18.1576C17.0083 17.3348 18.1048 16.0471 18.6823 14.5056H12.2656V9.7583H18.776H23.7921Z" fill="#518EF8"/>
<path d="M19.5114 21.3574L19.5121 21.358C17.4556 23.011 14.8433 24 11.9996 24C7.42969 24 3.45652 21.4457 1.42969 17.6868L5.31848 14.5035C6.33187 17.2081 8.94089 19.1334 11.9996 19.1334C13.3143 19.1334 14.546 18.778 15.6029 18.1576L19.5114 21.3574Z" fill="#28B446"/>
<path d="M19.6577 2.76262L15.7702 5.94525C14.6763 5.26153 13.3833 4.86656 11.9981 4.86656C8.87017 4.86656 6.21236 6.88017 5.24973 9.68175L1.3405 6.48131H1.33984C3.337 2.63077 7.36028 0 11.9981 0C14.9097 0 17.5794 1.03716 19.6577 2.76262Z" fill="#F14336"/>
</g>
<defs>
<clipPath id="clip0_882_14579">
<rect width="24" height="24" fill="white"/>
</clipPath>
</defs>
</svg>
