<svg width="277" height="239" viewBox="0 0 277 239" fill="none" xmlns="http://www.w3.org/2000/svg">
<g style="mix-blend-mode:overlay">
<rect width="160" height="160" transform="matrix(0.866025 0.5 -0.866025 0.5 137.564 128)" fill="url(#paint0_linear_3023_116805)"/>
<rect width="160" height="160" transform="matrix(0.866025 0.5 -0.866025 0.5 137.564 96)" fill="url(#paint1_linear_3023_116805)"/>
<rect width="160" height="160" transform="matrix(0.866025 0.5 -0.866025 0.5 137.564 64)" fill="url(#paint2_linear_3023_116805)"/>
<rect width="160" height="160" transform="matrix(0.866025 0.5 -0.866025 0.5 137.564 32)" fill="url(#paint3_linear_3023_116805)"/>
<rect width="160" height="160" transform="matrix(0.866025 0.5 -0.866025 0.5 137.564 0)" fill="url(#paint4_linear_3023_116805)"/>
</g>
<defs>
<linearGradient id="paint0_linear_3023_116805" x1="178.829" y1="177.171" x2="34.8291" y2="177.171" gradientUnits="userSpaceOnUse">
<stop stop-color="#F7F7F7" stop-opacity="0.85"/>
<stop offset="1" stop-color="#3F3F3F" stop-opacity="0.83"/>
</linearGradient>
<linearGradient id="paint1_linear_3023_116805" x1="176.829" y1="175.171" x2="10.2821" y2="181.823" gradientUnits="userSpaceOnUse">
<stop stop-color="white"/>
<stop offset="1" stop-color="#3F3F3F"/>
</linearGradient>
<linearGradient id="paint2_linear_3023_116805" x1="172.829" y1="171.171" x2="10.2816" y2="177.816" gradientUnits="userSpaceOnUse">
<stop stop-color="white"/>
<stop offset="1" stop-color="#3F3F3F"/>
</linearGradient>
<linearGradient id="paint3_linear_3023_116805" x1="176.52" y1="179.48" x2="5.67397" y2="181.759" gradientUnits="userSpaceOnUse">
<stop stop-color="white"/>
<stop offset="1" stop-color="#3F3F3F"/>
</linearGradient>
<linearGradient id="paint4_linear_3023_116805" x1="160.829" y1="159.171" x2="-0.0166684" y2="161.448" gradientUnits="userSpaceOnUse">
<stop stop-color="white"/>
<stop offset="1" stop-color="#3F3F3F"/>
</linearGradient>
</defs>
</svg>
