<svg width="84" height="93" viewBox="0 0 84 93" fill="none" xmlns="http://www.w3.org/2000/svg">
<g style="mix-blend-mode:overlay" clip-path="url(#clip0_3023_116910)">
<path fill-rule="evenodd" clip-rule="evenodd" d="M60.3281 46.2188H52.0088V0H51.0844V46.2188H47.3869V0H46.4625V46.2188H42.765V0H41.8406V46.2188H38.1431V0H37.2188V46.2188H-9V47.1431H37.2188V50.8406H-9V51.765H37.2188V55.4625H-9V56.3869H37.2188V60.0844H-9V61.0088H37.2188V69.3281C37.2188 82.0911 47.5652 92.4375 60.3281 92.4375C73.0911 92.4375 83.4375 82.0911 83.4375 69.3281C83.4375 56.5652 73.0911 46.2188 60.3281 46.2188ZM41.8406 50.8406H38.1431V47.1431H41.8406V50.8406ZM42.765 50.8406H46.4625V47.1431H42.765V50.8406ZM47.3869 50.8406H51.0844V47.1431H47.3869V50.8406ZM52.0088 50.8406V47.1431H60.3281C72.5806 47.1431 82.5131 57.0757 82.5131 69.3281C82.5131 81.5806 72.5806 91.5131 60.3281 91.5131C48.0757 91.5131 38.1431 81.5806 38.1431 69.3281V61.0088H41.8406V69.3281C41.8406 79.5385 50.1178 87.8156 60.3281 87.8156C70.5385 87.8156 78.8156 79.5385 78.8156 69.3281C78.8156 59.1178 70.5385 50.8406 60.3281 50.8406H52.0088ZM41.8406 60.0844H38.1431V56.3869H41.8406V60.0844ZM42.765 61.0088V69.3281C42.765 79.028 50.6283 86.8913 60.3281 86.8913C70.028 86.8913 77.8913 79.028 77.8913 69.3281C77.8913 59.6283 70.028 51.765 60.3281 51.765H52.0088V55.4625H60.3281C67.9859 55.4625 74.1937 61.6704 74.1937 69.3281C74.1937 76.9859 67.9859 83.1937 60.3281 83.1937C52.6704 83.1937 46.4625 76.9859 46.4625 69.3281V61.0088H42.765ZM47.3869 55.4625H51.0844V51.765H47.3869V55.4625ZM46.4625 51.765V55.4625H42.765V51.765H46.4625ZM46.4625 56.3869V60.0844H42.765V56.3869H46.4625ZM47.3869 69.3281V61.0088H51.0844V69.3281C51.0844 74.4333 55.2229 78.5719 60.3281 78.5719C65.4333 78.5719 69.5719 74.4333 69.5719 69.3281C69.5719 64.2229 65.4333 60.0844 60.3281 60.0844H52.0088V56.3869H60.3281C67.4754 56.3869 73.2694 62.1809 73.2694 69.3281C73.2694 76.4754 67.4754 82.2694 60.3281 82.2694C53.1809 82.2694 47.3869 76.4754 47.3869 69.3281ZM52.0088 69.3281C52.0088 73.9228 55.7335 77.6475 60.3281 77.6475C64.9228 77.6475 68.6475 73.9228 68.6475 69.3281C68.6475 64.7335 64.9228 61.0088 60.3281 61.0088H52.0088V69.3281ZM51.0844 60.0844V56.3869H47.3869V60.0844H51.0844ZM41.8406 55.4625H38.1431V51.765H41.8406V55.4625Z" fill="url(#paint0_linear_3023_116910)"/>
</g>
<defs>
<linearGradient id="paint0_linear_3023_116910" x1="75.1181" y1="87.3534" x2="-9" y2="-1.84874" gradientUnits="userSpaceOnUse">
<stop stop-color="white"/>
<stop offset="1" stop-color="white" stop-opacity="0"/>
</linearGradient>
<clipPath id="clip0_3023_116910">
<rect width="92.4375" height="92.4375" fill="white" transform="translate(-9)"/>
</clipPath>
</defs>
</svg>
