<svg width="31" height="49" viewBox="0 0 31 49" fill="none" xmlns="http://www.w3.org/2000/svg">
<path fill-rule="evenodd" clip-rule="evenodd" d="M46.3111 25.3896L46.3 17.0702L92.5187 17.0087L92.5175 16.0843L46.2988 16.1459L46.2939 12.4484L92.5126 12.3868L92.5113 11.4625L46.2926 11.524L46.2877 7.82649L92.5064 7.76495L92.5052 6.84058L46.2865 6.90212L46.2816 3.20462L92.5003 3.14308L92.499 2.21871L46.2803 2.28025L46.2188 -43.9385L45.2944 -43.9372L45.356 2.28148L41.6585 2.2864L41.5969 -43.9323L40.6725 -43.9311L40.7341 2.28763L37.0366 2.29256L36.975 -43.9262L36.0507 -43.9249L36.1122 2.29379L32.4147 2.29871L32.3532 -43.92L31.4288 -43.9188L31.4903 2.29994L23.171 2.31102C10.408 2.32801 0.0753984 12.6882 0.092392 25.4511C0.109386 38.2141 10.4696 48.5467 23.2325 48.5297C35.9955 48.5127 46.3281 38.1525 46.3111 25.3896ZM41.6646 6.90827L41.6597 3.21078L45.3572 3.20585L45.3621 6.90335L41.6646 6.90827ZM41.6658 7.83265L41.6708 11.5301L45.3683 11.5252L45.3633 7.82772L41.6658 7.83265ZM41.672 12.4545L41.6769 16.152L45.3744 16.1471L45.3695 12.4496L41.672 12.4545ZM41.6782 17.0764L45.3757 17.0715L45.3867 25.3908C45.403 37.6433 35.4837 47.589 23.2313 47.6054C10.9789 47.6217 1.03308 37.7023 1.01677 25.4499C1.00045 13.1975 10.9198 3.2517 23.1722 3.23539L31.4916 3.22431L31.4965 6.92181L23.1771 6.93289C12.9668 6.94648 4.70066 15.2346 4.71426 25.445C4.72785 35.6553 13.016 43.9215 23.2264 43.9079C33.4367 43.8943 41.7028 35.6061 41.6892 25.3958L41.6782 17.0764ZM32.4209 6.92058L32.416 3.22308L36.1134 3.21816L36.1184 6.91566L32.4209 6.92058ZM31.4977 7.84619L23.1784 7.85726C13.4785 7.87018 5.62572 15.7439 5.63864 25.4438C5.65155 35.1436 13.5253 42.9964 23.2251 42.9835C32.925 42.9706 40.7778 35.0968 40.7649 25.397L40.7538 17.0776L37.0563 17.0825L37.0674 25.4019C37.0776 33.0597 30.878 39.2758 23.2202 39.286C15.5624 39.2962 9.34633 33.0966 9.33614 25.4388C9.32594 17.7811 15.5255 11.565 23.1833 11.5548L31.5027 11.5437L31.4977 7.84619ZM37.0501 12.4607L37.055 16.1582L40.7525 16.1532L40.7476 12.4557L37.0501 12.4607ZM40.7464 11.5314L37.0489 11.5363L37.044 7.8388L40.7415 7.83388L40.7464 11.5314ZM36.1245 11.5375L32.427 11.5425L32.4221 7.84495L36.1196 7.84003L36.1245 11.5375ZM23.1845 12.4791L31.5039 12.4681L31.5088 16.1656L23.1894 16.1766C18.0843 16.1834 13.9512 20.3275 13.958 25.4327C13.9648 30.5379 18.1089 34.6709 23.2141 34.6641C28.3192 34.6573 32.4523 30.5132 32.4455 25.4081L32.4344 17.0887L36.1319 17.0838L36.143 25.4031C36.1525 32.5504 30.3662 38.3521 23.219 38.3616C16.0717 38.3711 10.27 32.5849 10.2605 25.4376C10.251 18.2904 16.0373 12.4887 23.1845 12.4791ZM23.1907 17.101C18.596 17.1071 14.8763 20.8368 14.8824 25.4314C14.8885 30.0261 18.6182 33.7459 23.2128 33.7397C27.8075 33.7336 31.5272 30.004 31.5211 25.4093L31.51 17.0899L23.1907 17.101ZM32.4332 16.1643L36.1307 16.1594L36.1258 12.4619L32.4283 12.4668L32.4332 16.1643ZM37.0427 6.91443L37.0378 3.21693L40.7353 3.21201L40.7402 6.9095L37.0427 6.91443Z" fill="url(#paint0_linear_3023_116995)"/>
<defs>
<linearGradient id="paint0_linear_3023_116995" x1="5.19614" y1="40.2344" x2="94.2862" y2="-44.0025" gradientUnits="userSpaceOnUse">
<stop stop-color="white"/>
<stop offset="1" stop-color="white" stop-opacity="0"/>
</linearGradient>
</defs>
</svg>
