<svg width="75" height="93" viewBox="0 0 75 93" fill="none" xmlns="http://www.w3.org/2000/svg">
<g style="mix-blend-mode:overlay" clip-path="url(#clip0_3023_116996)">
<path fill-rule="evenodd" clip-rule="evenodd" d="M69.3281 46.2188H61.0088V0H60.0844V46.2188H56.3869V0H55.4625V46.2188H51.765V0H50.8406V46.2188H47.1431V0H46.2188V46.2188H0V47.1431H46.2188V50.8406H0V51.765H46.2188V55.4625H0V56.3869H46.2188V60.0844H0V61.0088H46.2188V69.3281C46.2188 82.0911 56.5652 92.4375 69.3281 92.4375C82.0911 92.4375 92.4375 82.0911 92.4375 69.3281C92.4375 56.5652 82.0911 46.2188 69.3281 46.2188ZM50.8406 50.8406H47.1431V47.1431H50.8406V50.8406ZM51.765 50.8406H55.4625V47.1431H51.765V50.8406ZM56.3869 50.8406H60.0844V47.1431H56.3869V50.8406ZM61.0088 50.8406V47.1431H69.3281C81.5806 47.1431 91.5131 57.0757 91.5131 69.3281C91.5131 81.5806 81.5806 91.5131 69.3281 91.5131C57.0757 91.5131 47.1431 81.5806 47.1431 69.3281V61.0088H50.8406V69.3281C50.8406 79.5385 59.1178 87.8156 69.3281 87.8156C79.5385 87.8156 87.8156 79.5385 87.8156 69.3281C87.8156 59.1178 79.5385 50.8406 69.3281 50.8406H61.0088ZM50.8406 60.0844H47.1431V56.3869H50.8406V60.0844ZM51.765 61.0088V69.3281C51.765 79.028 59.6283 86.8913 69.3281 86.8913C79.028 86.8913 86.8913 79.028 86.8913 69.3281C86.8913 59.6283 79.028 51.765 69.3281 51.765H61.0088V55.4625H69.3281C76.9859 55.4625 83.1937 61.6704 83.1937 69.3281C83.1937 76.9859 76.9859 83.1937 69.3281 83.1937C61.6704 83.1937 55.4625 76.9859 55.4625 69.3281V61.0088H51.765ZM56.3869 55.4625H60.0844V51.765H56.3869V55.4625ZM55.4625 51.765V55.4625H51.765V51.765H55.4625ZM55.4625 56.3869V60.0844H51.765V56.3869H55.4625ZM56.3869 69.3281V61.0088H60.0844V69.3281C60.0844 74.4333 64.2229 78.5719 69.3281 78.5719C74.4333 78.5719 78.5719 74.4333 78.5719 69.3281C78.5719 64.2229 74.4333 60.0844 69.3281 60.0844H61.0088V56.3869H69.3281C76.4754 56.3869 82.2694 62.1809 82.2694 69.3281C82.2694 76.4754 76.4754 82.2694 69.3281 82.2694C62.1809 82.2694 56.3869 76.4754 56.3869 69.3281ZM61.0088 69.3281C61.0088 73.9228 64.7335 77.6475 69.3281 77.6475C73.9228 77.6475 77.6475 73.9228 77.6475 69.3281C77.6475 64.7335 73.9228 61.0088 69.3281 61.0088H61.0088V69.3281ZM60.0844 60.0844V56.3869H56.3869V60.0844H60.0844ZM50.8406 55.4625H47.1431V51.765H50.8406V55.4625Z" fill="url(#paint0_linear_3023_116996)"/>
</g>
<defs>
<linearGradient id="paint0_linear_3023_116996" x1="84.1181" y1="87.3534" x2="3.83806e-06" y2="-1.84874" gradientUnits="userSpaceOnUse">
<stop stop-color="white"/>
<stop offset="1" stop-color="white" stop-opacity="0"/>
</linearGradient>
<clipPath id="clip0_3023_116996">
<rect width="92.4375" height="92.4375" fill="white"/>
</clipPath>
</defs>
</svg>
