<svg width="100" height="100" viewBox="0 0 100 100" fill="none" xmlns="http://www.w3.org/2000/svg">
<path d="M33.3333 79.1663H29.1667C18.75 79.1663 12.5 70.833 12.5 62.4997C12.5 54.1663 18.75 45.833 29.1667 45.833C33.3333 45.833 35.4167 47.9163 35.4167 47.9163M66.6667 79.1663H70.8333C81.25 79.1663 87.5 70.833 87.5 62.4997C87.5 54.1663 81.25 45.833 70.8333 45.833C66.6667 45.833 64.5833 47.9163 64.5833 47.9163" stroke="#1B2559" stroke-width="4" stroke-linecap="round" stroke-linejoin="round"/>
<path d="M29.166 45.833V41.6663C29.166 31.2497 37.4993 20.833 49.9994 20.833C62.4994 20.833 70.8327 31.2497 70.8327 41.6663V45.833" stroke="#1B2559" stroke-width="4" stroke-linecap="round" stroke-linejoin="round"/>
<path d="M50 83.333V58.333" stroke="#1B2559" stroke-width="3" stroke-linecap="round" stroke-linejoin="round"/>
<path d="M58.3327 62.4993L49.9993 54.166L41.666 62.4993" stroke="#1B2559" stroke-width="3" stroke-linecap="round" stroke-linejoin="round"/>
</svg>
